<svg width="23" height="22" viewBox="0 0 23 22" fill="none" xmlns="http://www.w3.org/2000/svg">
<rect width="23" height="22" fill="#E7E5E5"/>
<path d="M-680 -854C-680 -859.523 -675.523 -864 -670 -864H750C755.523 -864 760 -859.523 760 -854V289C760 294.523 755.523 299 750 299H-670C-675.523 299 -680 294.523 -680 289V-854Z" fill="white"/>
<rect x="-58" y="-29" width="390" height="165" fill="#81B3D2"/>
<path d="M23 2.77477L20.0991 0L11.5 8.22522L2.9009 0L0 2.77477L8.5991 11L0 19.2252L2.9009 22L11.5 13.7748L20.0991 22L23 19.2252L14.4009 11L23 2.77477Z" fill="white"/>
<path d="M-670 -863H750V-865H-670V-863ZM759 -854V289H761V-854H759ZM750 298H-670V300H750V298ZM-679 289V-854H-681V289H-679ZM-670 298C-674.971 298 -679 293.971 -679 289H-681C-681 295.075 -676.075 300 -670 300V298ZM759 289C759 293.971 754.971 298 750 298V300C756.075 300 761 295.075 761 289H759ZM750 -863C754.971 -863 759 -858.971 759 -854H761C761 -860.075 756.075 -865 750 -865V-863ZM-670 -865C-676.075 -865 -681 -860.075 -681 -854H-679C-679 -858.971 -674.971 -863 -670 -863V-865Z" fill="black" fill-opacity="0.1"/>
</svg>
