<svg width="23" height="22" fill="none" xmlns="http://www.w3.org/2000/svg"><path fill="#E7E5E5" d="M0 0h23v22H0z"/><path d="M-680-854c0-5.523 4.477-10 10-10H750c5.523 0 10 4.477 10 10V289c0 5.523-4.477 10-10 10H-670c-5.523 0-10-4.477-10-10V-854Z" fill="#fff"/><path fill="#81B3D2" d="M-58-29h390v165H-58z"/><path d="M23 2.775 20.1 0l-8.6 8.225L2.9 0 0 2.775 8.6 11 0 19.225 2.9 22l8.6-8.225L20.1 22l2.9-2.775L14.4 11 23 2.775Z" fill="#fff"/><path d="M-670-863H750v-2H-670v2Zm1429 9V289h2V-854h-2Zm-9 1152H-670v2H750v-2Zm-1429-9V-854h-2V289h2Zm9 9a9 9 0 0 1-9-9h-2c0 6.075 4.925 11 11 11v-2Zm1429-9a9 9 0 0 1-9 9v2c6.075 0 11-4.925 11-11h-2Zm-9-1152a9 9 0 0 1 9 9h2c0-6.075-4.925-11-11-11v2Zm-1420-2c-6.075 0-11 4.925-11 11h2a9 9 0 0 1 9-9v-2Z" fill="#000" fill-opacity=".1"/></svg>